<?xml version="1.0" ?><!DOCTYPE svg  PUBLIC '-//W3C//DTD SVG 1.1//EN'  'http://www.w3.org/Graphics/SVG/1.1/DTD/svg11.dtd'><svg enable-background="new 0 0 1024 1024" height="1024px" id="Pinterest_1_" version="1.1" viewBox="0 0 1024 1024" width="1024px" xml:space="preserve" xmlns="http://www.w3.org/2000/svg" xmlns:xlink="http://www.w3.org/1999/xlink"><g id="Background"><g id="bg_1_"><path d="M75.094,306.009c0-27.5,19.413-61.375,43.14-75.277L468.861,25.286c23.727-13.902,62.553-13.902,86.28,0    l350.625,205.445c23.729,13.902,43.141,47.777,43.141,75.277v412c0,27.5-19.412,61.375-43.141,75.277L555.141,998.731    c-23.727,13.901-62.553,13.901-86.28,0L118.234,793.286c-23.727-13.902-43.14-47.777-43.14-75.277V306.009z" fill="#BD081C"/></g><path d="M938.092,262.262c0,0-1.043-2.021-3.287-5.308   c-1.818-2.664-3.744-5.561-6.111-8.186c-5-5.546-6.697-6.941-7.377-7.551c-2.637-2.355-5.848-4.801-8.945-6.617   c-2.26-1.324-362.889-212.63-362.889-212.63s-6.123-3.544-11.67-5.321c-5.547-1.778-9.457-2.56-13.512-3.129   c-4.053-0.569-9.67-0.854-13.296-0.854c-3.627,0-12.089,0.711-15.716,1.565c-3.627,0.853-6.276,1.511-7.236,1.831   s-3.173,1.093-4.08,1.387c-0.906,0.293-5.094,2.16-5.333,2.293c-0.239,0.133-1.643,0.776-2.431,1.238   S124.593,227.005,124.593,227.005s-14.797,8.097-20.628,13.074c-2.497,2.131-5.266,4.867-7.658,7.582   c-3.196,3.627-5.807,7.203-7.026,9.093c-0.923,1.43-2.28,3.533-3.494,5.707c-1.577,2.825-3.032,5.837-3.667,7.147   c-1.162,2.398-3.293,8.053-3.827,9.76s-1.547,5.534-1.707,6.436c-0.042,0.234-0.693,3.52-0.747,3.911   c-0.053,0.391-0.44,2.92-0.533,4.267c-0.033,0.48-0.211,2.897-0.212,2.969c-0.001,0.072-0.001,429.511-0.001,429.511   s0.349,5.079,0.427,5.635c0.028,0.203,0.454,3.433,0.782,4.836c0.213,0.91,0.64,2.987,0.924,3.982   c0.285,0.995,0.729,2.636,0.96,3.342c0.213,0.653,0.96,2.917,1.209,3.591c0.249,0.676,1.25,3.248,1.529,3.912   c0.286,0.681,1.813,4.018,1.92,4.23C82.951,756.204,938.092,262.262,938.092,262.262z" enable-background="new    " fill="#FFFFFF" id="bg-light" opacity="0.2"/></g><path d="M673.891,384.523c-5.811-19.109-16.51-36.487-29.973-51.155  c-14.475-15.77-30.723-24.829-49.625-34.28c0,0-55.076-27.538-129.695-7.106c-23.599,6.461-44.706,19.742-64.024,34.418  c-20.063,15.239-34.512,34.501-44.415,57.644c-2.686,6.274-5.044,12.751-7.071,19.269c-2.069,6.655-3.573,13.497-4.302,20.434  c-2.092,19.918-1.304,39.932,4.206,59.219c4.74,16.599,11.221,32.574,22.097,46.193c6.05,7.575,14.752,14.065,24.007,17.232  c0.33,0.113,0.661,0.223,0.995,0.327c2.772,1.098,5.438,1.985,8.448-0.429c0.273-0.256,0.511-0.546,0.718-0.854  c0.623-0.923,0.978-2.003,1.244-2.834c0.079-0.377,0.151-0.726,0.227-1.003c1.063-3.906,1.738-7.903,2.611-11.854  c1.12-5.073,2.135-10.177,3.137-15.272c0.052-0.264,0.814-2.864,0.601-3.076c-0.003-0.003-36.124-35.831-13.028-100.972  c0,0,15.397-45.008,53.891-66.327c16.775-9.292,34.572-15.977,54.052-16.096c15.44-0.094,30.952,2.156,45.68,6.739  c14.594,4.542,28.594,12.193,39.855,22.579c3.758,3.466,7.115,7.347,10.098,11.506s5.588,8.597,7.842,13.174  c3.787,8.839,6.348,18.226,7.922,27.463c1.012,5.848,1.818,12.543,2.17,20.001c0.701,14.915-0.418,32.878-5.354,53.211  c0,0-10.066,42.047-31.387,63.366c-16.715,16.714-43.361,29.881-65.5,14.379c-4.58-3.208-10.277-8.586-12.754-13.686  c-5.07-10.448-6.177-19.257-4.467-30.646c1.239-8.257,2.823-16.563,6.166-24.263c9.323-21.472,18.122-43.806,17.778-67.613  c-0.096-6.563-1.373-13.354-3.951-19.423c-2.396-5.635-5.588-10.315-10.299-14.277c-3.587-3.017-7.717-4.979-12.25-6.145  c0,0-17.174-7.107-33.164,7.699c0,0-40.863,40.86-16.582,101.267c0,0-34.898,155.563-34.94,155.751  c-4.634,20.639-3.412,41.023-1.388,61.905c0.544,5.618,1.798,15.796,2.077,17.771c0.547,3.873,1.42,14.705,6.86,9.375  c2.354-2.306,35.532-53.076,42.194-74.396c6.663-21.319,20.875-82.612,20.875-82.612s14.213,37.31,78.617,31.535  c0,0,74.617-6.218,103.488-95.493c2.57-7.95,4.701-15.968,6.525-24.134c1.822-8.154,3.223-16.396,4.225-24.685  C681.667,440.717,682.053,411.375,673.891,384.523z" fill="#FFFFFF" id="Pinterest"/></svg>