<?xml version="1.0" ?><!DOCTYPE svg  PUBLIC '-//W3C//DTD SVG 1.1//EN'  'http://www.w3.org/Graphics/SVG/1.1/DTD/svg11.dtd'><svg enable-background="new 0 0 1024 1024" height="1024px" id="Spotify" version="1.1" viewBox="0 0 1024 1024" width="1024px" xml:space="preserve" xmlns="http://www.w3.org/2000/svg" xmlns:xlink="http://www.w3.org/1999/xlink"><g id="Background"><g id="bg"><path d="M64.013,293.264c0-24.062,16.986-53.702,37.747-65.866L474.255,9.139c20.76-12.164,54.732-12.164,75.492,0    l372.497,218.259c20.76,12.164,37.745,41.804,37.745,65.866v437.488c0,24.062-16.985,53.702-37.745,65.866l-372.497,218.259    c-20.76,12.164-54.732,12.164-75.492,0L101.759,796.618c-20.761-12.164-37.747-41.806-37.747-65.866L64.013,293.264    L64.013,293.264z" fill="#1ED760"/></g><path d="M948.901,255.927c0,0-1.072-2.074-3.373-5.443   c-1.864-2.731-3.841-5.701-6.266-8.394c-5.127-5.687-6.868-7.118-7.564-7.743c-2.703-2.416-5.995-4.923-9.17-6.784   C920.21,226.204,550.433,9.539,550.433,9.539s-6.277-3.633-11.966-5.456c-5.687-1.823-9.698-2.625-13.854-3.208   S514.698,0,510.979,0c-3.719,0-12.396,0.729-16.113,1.604c-3.719,0.875-6.436,1.549-7.419,1.877   c-0.984,0.328-3.254,1.121-4.184,1.422c-0.93,0.301-5.223,2.214-5.468,2.352c-0.246,0.138-1.684,0.796-2.494,1.27   c-0.809,0.474-360.535,211.251-360.535,211.251s-15.172,8.302-21.151,13.406c-2.559,2.185-5.398,4.99-7.852,7.774   c-3.278,3.719-5.954,7.385-7.205,9.324c-0.946,1.466-2.337,3.624-3.582,5.852c-1.617,2.897-3.109,5.984-3.76,7.328   c-1.191,2.459-3.376,8.258-3.923,10.008s-1.586,5.673-1.75,6.599c-0.042,0.24-0.711,3.609-0.766,4.01   c-0.055,0.401-0.452,2.994-0.547,4.375c-0.034,0.493-0.217,2.971-0.218,3.044c-0.001,0.073-0.001,440.405-0.001,440.405   s0.358,5.205,0.438,5.778c0.029,0.207,0.465,3.52,0.802,4.959c0.219,0.933,0.656,3.063,0.948,4.083   c0.292,1.021,0.747,2.702,0.984,3.426c0.219,0.67,0.984,2.991,1.24,3.684c0.255,0.691,1.282,3.33,1.568,4.011   c0.293,0.697,1.859,4.119,1.969,4.338S948.901,255.927,948.901,255.927z" enable-background="new    " fill="#FFFFFF" id="bg-light" opacity="0.2"/></g><path d="M275.846,350.207c0.221-0.06,0.438-0.138,0.658-0.204c18.167-5.548,36.914-9.441,55.585-12.817  c41.529-7.509,83.747-11.386,125.943-11.771c56.885-0.52,113.908,5.465,169.226,18.863c31.519,7.633,62.455,17.675,92.385,30.165  c14.004,5.843,28.019,11.735,41.463,18.793c11.721,6.156,23.427,12.232,31.277,23.282c8.692,12.234,7.497,26.343-1.266,38.267  c-18.283,24.88-38.853,15.509-61.66,4.479c-42.901-20.743-91.69-36.281-138.318-46.085  c-52.549-11.047-106.449-15.693-160.109-13.501c-46.012,1.878-91.79,8.812-136.308,20.588c0,0-40.762,10.37-49.298-26.146  C237.554,360.456,275.794,350.221,275.846,350.207z" fill="#FFFFFF"/><path d="M296.569,484.954c0.19-0.051,0.377-0.118,0.566-0.177c15.618-4.77,31.735-8.115,47.787-11.019  c35.703-6.455,71.998-9.79,108.274-10.119c48.905-0.445,97.929,4.698,145.486,16.216c27.096,6.563,53.69,15.196,79.423,25.934  c12.037,5.021,24.088,10.089,35.644,16.159c10.077,5.289,20.143,10.515,26.891,20.015c7.475,10.518,6.444,22.647-1.088,32.897  c-15.721,21.39-33.398,13.332-53.011,3.851c-36.883-17.833-78.827-31.191-118.911-39.619  c-45.178-9.497-91.516-13.492-137.647-11.608c-39.559,1.617-78.912,7.574-117.187,17.7c0,0-35.043,8.915-42.382-22.479  C263.65,493.764,296.525,484.965,296.569,484.954z" fill="#FFFFFF"/><path d="M311.208,610.269c0.164-0.044,0.321-0.101,0.483-0.149c13.337-4.072,27.098-6.932,40.807-9.409  c30.486-5.511,61.479-8.358,92.456-8.641c41.761-0.381,83.624,4.013,124.233,13.848c23.136,5.604,45.848,12.977,67.819,22.145  c10.279,4.289,20.567,8.617,30.438,13.799c8.605,4.519,17.197,8.979,22.963,17.092c6.382,8.981,5.505,19.34-0.932,28.092  c-13.422,18.264-28.521,11.384-45.266,3.287c-31.494-15.228-67.313-26.635-101.542-33.832c-38.576-8.11-78.146-11.521-117.539-9.912  c-33.778,1.379-67.384,6.469-100.063,15.114c0,0-29.926,7.612-36.19-19.195C283.098,617.791,311.17,610.278,311.208,610.269z" fill="#FFFFFF"/></svg>