<?xml version="1.0" ?><!DOCTYPE svg  PUBLIC '-//W3C//DTD SVG 1.1//EN'  'http://www.w3.org/Graphics/SVG/1.1/DTD/svg11.dtd'><svg enable-background="new 0 0 1024 1024" height="1024px" id="Vimeo_1_" version="1.1" viewBox="0 0 1024 1024" width="1024px" xml:space="preserve" xmlns="http://www.w3.org/2000/svg" xmlns:xlink="http://www.w3.org/1999/xlink"><g id="Background"><g id="bg_1_"><path d="M75.094,306.009c0-27.5,19.413-61.375,43.14-75.277L468.861,25.286c23.727-13.902,62.553-13.902,86.28,0    l350.625,205.445c23.729,13.902,43.141,47.777,43.141,75.277v412c0,27.5-19.412,61.375-43.141,75.277L555.141,998.731    c-23.727,13.901-62.553,13.901-86.28,0L118.234,793.286c-23.727-13.902-43.14-47.777-43.14-75.277V306.009z" fill="#00B3EC"/></g><path d="M938.094,262.262c0,0-1.045-2.021-3.289-5.308   c-1.818-2.664-3.744-5.561-6.111-8.186c-5-5.546-6.697-6.941-7.377-7.551c-2.637-2.356-5.848-4.802-8.945-6.617   c-2.26-1.325-362.889-212.631-362.889-212.631s-6.123-3.544-11.67-5.322c-5.547-1.777-9.457-2.56-13.51-3.128   c-4.053-0.569-9.672-0.854-13.298-0.854c-3.626,0-12.089,0.711-15.716,1.564c-3.626,0.854-6.275,1.511-7.235,1.831   s-3.173,1.093-4.08,1.387c-0.905,0.293-5.093,2.16-5.333,2.293c-0.239,0.133-1.643,0.776-2.431,1.239   c-0.789,0.462-351.617,206.025-351.617,206.025s-14.796,8.097-20.628,13.074c-2.496,2.131-5.265,4.867-7.658,7.582   c-3.196,3.627-5.807,7.203-7.027,9.093c-0.922,1.43-2.28,3.533-3.493,5.707c-1.577,2.825-3.032,5.837-3.667,7.147   c-1.162,2.398-3.293,8.053-3.827,9.76s-1.547,5.533-1.707,6.436c-0.041,0.233-0.693,3.521-0.747,3.911   c-0.054,0.391-0.44,2.92-0.533,4.267c-0.033,0.48-0.212,2.897-0.212,2.969c-0.001,0.071-0.001,429.512-0.001,429.512   s0.349,5.078,0.427,5.635c0.028,0.203,0.453,3.433,0.782,4.837c0.213,0.91,0.64,2.986,0.925,3.981   c0.285,0.995,0.729,2.636,0.96,3.342c0.213,0.653,0.959,2.917,1.209,3.591c0.249,0.675,1.25,3.248,1.529,3.912   c0.286,0.681,1.813,4.018,1.92,4.23C82.951,756.204,938.094,262.262,938.094,262.262z" enable-background="new    " fill="#FFFFFF" id="bg-light" opacity="0.2"/></g><path d="M246.381,469.866c0,0,29.595-21.079,29.653-21.12c9.805-6.983,23.421-5.542,30.965,3.833  c9.297,11.555,13.862,25.86,18.033,39.864c4.588,15.406,9.636,30.671,14.1,46.116c2.654,9.183,5.164,18.405,7.474,27.681  c6.172,24.778,12.438,49.542,19.557,74.069c3.366,11.6,6.758,23.249,10.779,34.642c3.412,9.671,18.203,51.769,38.114,75.093  c8.187,9.588,18.963,19.749,30.604,24.825c19.122,8.338,39.564,0.235,56.601-9.308c36.72-20.569,67.941-48.894,98.585-77.39  c26.434-24.579,51.133-51.215,73.279-79.736c10.324-13.296,19.986-27.218,28.896-41.502c20.934-33.568,39.695-65.583,51.762-103.831  c14.689-46.568,14.332-78.473-2.418-111.296c-12.475-24.446-42.055-41.531-83.896-41.273c-28.531,0.176-57.859,7.675-80.818,25.172  c-6.148,4.686-11.867,10.242-16.836,16.168c-7.332,8.745-14.1,18.501-19.793,28.393c-6.684,11.609-13.695,23.186-19.332,35.355  c-2.271,4.905-5.438,11.051-6.041,16.534c-0.795,7.24,6.053,4.332,10.818,2.917c16.623-4.935,52.527-19.819,65.654,9.901  c4.896,11.089,4.406,22.895,1.807,34.279c-2.711,11.877-6.541,22.471-12.406,35.957c-7.074,16.269-35.807,60.896-51.684,76.075  c-5.742,5.487-11.881,10.792-19.193,13.997c-12.942,5.673-19.927-6.147-23.668-17.371c-11.438-34.314-18.961-69.781-24.852-105.426  c-1.691-10.232-3.248-20.486-4.733-30.75c-1.878-12.975-3.883-25.938-6.587-38.771c-3.48-16.52-8.337-32.788-15.597-48.058  c-8.187-17.218-20.277-31.17-36.836-40.595c-12.942-7.366-32.615-7.766-46.486-3.108c-4.328,1.454-8.53,3.378-12.59,5.46  c-8.226,4.218-15.757,9.808-22.985,15.535c-35.84,28.396-98.986,88.13-105.244,91.543L246.381,469.866z" fill="#FFFFFF" id="Vimeo"/></svg>